<svg width="742" height="476" viewBox="0 0 742 476" fill="none" xmlns="http://www.w3.org/2000/svg">
<g filter="url(#filter0_d_5_19)">
<path fill-rule="evenodd" clip-rule="evenodd" d="M663.537 97.6671L663.549 97.6837C676.687 117.04 688.328 134.191 693.96 142.602L711.056 168.171L711.613 86.7062L711.985 5.24094H722.205H732.425V104.149V203.057L723.692 206.228C718.86 208.012 714.401 208.805 713.657 208.012C712.171 206.03 690.244 173.92 638.585 97.4097L599.562 39.9281L599.005 121.79L598.633 203.453H588.413H578.192V104.347C578.192 49.8387 578.378 5.24094 578.75 5.24094C578.903 5.24094 581.338 4.29464 584.484 3.07191C585.147 2.81406 585.842 2.54391 586.554 2.26775C590.643 0.682051 594.917 -0.309011 595.846 0.087414C596.961 0.285626 615.543 26.8461 637.284 58.9565C645.842 71.5965 655.005 85.0965 663.537 97.6671ZM302.803 6.82663C330.862 18.323 348.33 45.2798 348.33 77.5884C348.33 100.581 343.127 113.465 327.517 130.313C308.749 150.332 286.079 157.468 262.108 151.125C238.694 144.782 222.899 130.709 212.679 107.122C208.219 97.0133 207.476 92.8508 207.476 77.5884C207.476 61.7315 208.033 58.3618 213.422 46.4691C229.775 9.60161 267.868 -7.24644 302.803 6.82663ZM159.72 76.0027L159.162 146.963L153.216 160.243C145.597 177.289 132.961 190.966 116.423 199.687C104.158 206.03 102.486 206.426 83.9038 206.426C59.7468 206.426 47.8542 202.066 32.8025 187.2C17.7509 172.73 9.94633 156.873 6.97316 135.466L5.67241 126.15H15.8927H25.9271L27.2278 134.475C29.2719 147.161 36.7048 162.82 44.3235 169.955C73.6835 197.309 117.538 188.786 134.448 152.116C138.536 143.395 138.722 140.62 139.279 84.9223L139.836 27.0443H77.4H15.1494V16.1426V5.24094H87.6203H160.277L159.72 76.0027ZM425.818 50.8298V96.4186H473.203H520.587V50.6316V5.04272L530.436 5.63736L540.099 6.232V104.347V202.462L530.436 203.057L520.587 203.652V161.036V118.222H473.203H425.818L425.446 160.243L424.889 202.462L415.226 203.057L405.377 203.652V104.545V5.24094H415.597H425.818V50.8298ZM354.833 191.957L354.276 202.462L277.717 203.057L200.972 203.453V192.552V181.65H278.274H355.391L354.833 191.957ZM504.049 264.106C515.57 267.872 528.764 274.612 535.267 280.161L539.727 284.126L533.595 292.252L527.463 300.379L522.446 296.613C492.9 274.215 450.346 278.179 424.703 305.533C387.167 345.373 397.944 411.774 445.701 435.956C457.408 441.903 459.637 442.299 478.034 442.299C497.545 442.299 498.103 442.101 512.969 434.172L528.02 425.848L533.967 433.776L539.727 441.705L535.267 445.471C522.074 456.57 496.988 465.094 477.848 465.094C419.5 465.094 373.973 408.405 383.078 347.157C388.467 309.695 413.925 277.783 448.116 265.494C463.168 259.944 488.812 259.349 504.049 264.106ZM733.169 268.863C735.77 273.224 738 277.386 738 278.179C738 279.17 731.496 283.927 723.692 288.883C718.992 291.914 706.194 300.018 690.286 310.092C679.147 317.146 666.483 325.166 654.008 333.084L598.633 368.168V388.98V409.594H588.413H578.192L578.564 336.652L579.122 263.908H588.413H597.704L598.261 302.956C598.447 324.561 599.005 342.202 599.376 342.202C599.748 342.202 628.922 323.966 664.043 301.568C677.392 293.085 689.874 285.18 700.201 278.64L700.207 278.637C716.902 268.064 727.966 261.057 727.966 260.935C728.117 260.935 729.62 263.294 731.675 266.521C732.147 267.262 732.648 268.049 733.169 268.863ZM24.4405 348.545V434.172L51.0132 406.026C74.6127 381.052 78.3291 377.88 83.9038 377.88C89.4785 377.88 93.1949 381.052 116.794 406.026L143.367 434.172L143.739 348.941L144.296 263.908L154.145 263.313L163.808 262.719L163.436 362.221L162.878 461.724L154.888 464.895L147.084 467.869L115.865 434.767L84.8329 401.666L54.1722 434.371C37.2623 452.408 22.5823 467.076 21.2815 467.076C19.9808 467.076 15.521 465.688 11.4329 463.904L4 460.733V363.212C4 309.497 4.55747 264.899 5.30076 264.304C5.85823 263.512 10.5038 262.917 15.521 262.917H24.4405V348.545ZM338.481 273.819V284.72H311.537H284.592V362.023V439.326H311.537H338.481V450.228V461.129L274.001 460.733L209.334 460.138V450.228V440.317L236.836 439.722L264.152 439.128V362.023V284.919L236.836 284.324L209.334 283.729L208.777 275.999C208.712 275.197 208.637 274.445 208.567 273.738C208.287 270.929 208.08 268.847 208.894 267.304C211.229 262.879 221.963 262.886 263.475 262.912C266.894 262.915 270.523 262.917 274.372 262.917H338.481V273.819ZM695.447 371.141L738 396.116L735.398 401.269C734.936 402.205 734.518 403.085 734.127 403.906C732.427 407.482 731.263 409.931 729.341 410.946C725.166 413.151 717.417 408.59 692.834 394.118C690.623 392.817 688.276 391.435 685.784 389.971C662.928 376.493 643.788 365.195 643.416 364.798C642.301 363.609 650.292 346.166 651.778 346.166C652.336 346.166 672.033 357.464 695.447 371.141ZM732.425 450.228V461.129L655.866 460.733L579.122 460.138L578.564 449.633L578.007 439.326H655.123H732.425V450.228ZM232.005 53.803C237.765 42.5049 249.1 31.405 259.692 27.0443C279.018 19.1158 298.343 23.6747 313.581 39.9281C321.199 48.0548 323.987 52.8119 326.588 61.7315C340.711 113.663 282.734 153.504 244.826 118.024C231.819 105.735 227.916 96.6169 227.916 77.5885C227.916 65.1011 228.846 59.9476 232.005 53.803Z" fill="#D9D9D9"/>
</g>
<defs>
<filter id="filter0_d_5_19" x="0" y="0" width="742" height="475.869" filterUnits="userSpaceOnUse" color-interpolation-filters="sRGB">
<feFlood flood-opacity="0" result="BackgroundImageFix"/>
<feColorMatrix in="SourceAlpha" type="matrix" values="0 0 0 0 0 0 0 0 0 0 0 0 0 0 0 0 0 0 127 0" result="hardAlpha"/>
<feOffset dy="4"/>
<feGaussianBlur stdDeviation="2"/>
<feComposite in2="hardAlpha" operator="out"/>
<feColorMatrix type="matrix" values="0 0 0 0 0 0 0 0 0 0 0 0 0 0 0 0 0 0 0.25 0"/>
<feBlend mode="normal" in2="BackgroundImageFix" result="effect1_dropShadow_5_19"/>
<feBlend mode="normal" in="SourceGraphic" in2="effect1_dropShadow_5_19" result="shape"/>
</filter>
</defs>
</svg>
